<svg host="65bd71144e" xmlns="http://www.w3.org/2000/svg" style="background: transparent; background-color: transparent;" xmlns:xlink="http://www.w3.org/1999/xlink" version="1.1" width="1145px" height="1160px" viewBox="-0.5 -0.5 1145 1160" content="&lt;mxfile&gt;&lt;diagram id=&quot;22l45YMTztu3EL6P5PGq&quot; name=&quot;Page-1&quot;&gt;7Vxfb6M4EP80ke4eLvJ/4HHb7u29nFRpH+726cQmboKWhIiQNtlPfybYBNuEEAPdVKEvDWYY7JnfjGfGNhP8uNp/ScPN8u9kzuMJAvP9BD9NEEKAIPEvbzkULRBDVrQs0mgu204NX6OfXDYC2bqL5nyrEWZJEmfRRm+cJes1n2VaW5imyZtO9pLE+ls34YJbDV9nYWy3/hPNs6VsZZScbvzFo8VSvRqyoLjzPZz9WKTJbi1fuE7WvLizChUfOcjtMpwnb5Um/HmCH9MkyYpfq/0jj3PBKpEVz/155m7Z55SvszYPSCW9hvFODlv2KzsoORwHwnN6MMEPb8so41834Sy/+yZUL9qW2SoWV1D8fIni+DGJk1RcH4ctmpJ1JrWLqLi2uyh7/crTjO8rTbLLX3iy4ll6ECQKXUx2U2KLkiktGt5Omgp8v2hbVpUEiKQMJTwWJfeTmMQPKal6qTHWt9gMGdWIsQexYWVayiQpsKTmA2BLzfdBd6HB3rH2PkIjutBK7FWE5pEaobGgB6ThyzITLmST/3yJ+f5T7vfEuPl6Ln8+zeJwu41muuiEONLDv7mYp7i8/iau/wBTAHzV8rSXmiiuDtWrZ55GYjg8lY2tzZzPNb9rC74iWFojV9WW8jjMolfdW9fJWr7hOYlET0q9Es/TH9kmu3TGJVXVZdoPTqGvYwLAaVD90zlnYbrgmcX5qPty3K3gQIaBw4fV3UG5euSsS90jQgaG0p1yvhXlCQcX89/g75YShW/KdBWFcbRY5/oTKslt7iH3YJGIVj7JG6toPs8ff0j5NvoZfj+yyg1zk/f9OBr6MKFPOa9dlmwLdeest1ma/ODmrP0uEzn29Im8zrlCWAMk0seENJBz/WjWxICuBIwdrclkRDyD0RljEtIMDxUyidj2HZbmf7ZftBs9gRfozXHr9OJHMUJXz4Fsz2EBtQJKaa7zcLs8hlJQh2fe/hxmwousjy0I4NIJqEQH1cC4EjMgn1WDhjxmwC4xA99HmeTo+fL6mwpRxO8Tr/ziULkwOd26jXmATBkF5R/U5y/qTUHlz9H+PCg0QS02pW8lU+BXbpPBZrrgFvB665AIQKCDwAw92qrdZISGi2HKGf7Op0wvMJJC1wDUZEQhaqW7a6dM8z0YNU9pPulIT5vprf5cSU/Adf25mp5c2R+dvvuU36LCdA+GBhE2gOIanFqcCDU49WRqdpe9ZixB5Hd84BK67bGDnuHaYsa/B7gihU41L3ioj8DOZEtBI9uegGy+9ZKPLidBR/pLaZbZn77TLNwiuBnDVsYMZ2WuDbQOfXyjiGrGUP2FrQo4o2av0SwxY1FXzbYNal00O9bwihzQY7pVuurOZDRUlGR1mF0IYQDq+kDQ/IDVI52++/RCRyd0GcjnEkkHIJvh/mBVEeyPmm0RGwf14eHVmsVm7QAPp9mxktlGs2Y6ihxDQlOzxBtMs8rNjJptLL+U2/iMWdeh/IIMqzWXcHvU7U0kcpX1sqDcUVMsl2HfaYtNW7QgUMhSWudtAShwBpAxf7SNTF0A1CJfvIeswlqdcLV+kxEbUHdjRliIWK3vKpG7Gp7JyBuuTkNapEj3oTusu7oAu+pOZ8QwbqW763fk6O+h0grP77DpSO9doDf7o9N3zuXJuDxX6xt81xUOk1FADEa9AdXo8IU1ivK0hyv9pa1mZn90+u5Ava400QqUp11bkHmVXVviOgj627lVQEcFfzcFe2LUlrDr9g96ZlvDAHOrirh6RcIpxYHI2BJIfOiS44zg6hFc/hQgYymGBlMfwuFPKtAWYXgXuEGsw80n1AVutz7BEnNNDjiW1qjvTQNIzuwN9VkwDQbbD6rmxPfCAhtdz692PY1o8zCYouHWhKmdRQrerxbk7uWQDTEO2ahqffUA40BHbKidJ6U826Xr+1UGM06cAbU5pXp0eSh1eJY6tlmYcUsbp3O4ubhu4hzu6Wie8iKwHY7NdV8nwdlp1McVHHtPwY0bQwv5GosXzHOs6JmMfDhMRc98j4eaK24+6UhPm+mt/tB+K3rKRsb14Kt25ygpdd2dU36aov9wkN3YanA1V7mUp5zFQ3WBV01Ot4IRaszTrvt8IDRtfrjqmFrYvEWQgHsAiasjgdDYfESHW1pm19W0hgKJKlNUSxSN5YmzAKmWIm4MIBAaWaul17YIsY8CDjfVXFfoekeANJ+o/5gAMY4POW9Osc9+DgcQuzT1cfJIZO67rfsS1kB5JLMT8FUY3W8ZqQy8VRmJ2rrwa3TRRxWJjTl9oQO1YlImQ772FTDfzR2ZbAlrZNtTvm8Nxgsae0lIN3oCmuktKej0nfN9z873N2ky49vt3foURPWv0qhlu/f4FpdnJ+liLFv+312v3GBINY0gYH/mFNZ5uF5UYqfEs5iH693mfvVBdAsJvBp99GQi4vL0GeDCwZ0+tIw//w8=&lt;/diagram&gt;&lt;/mxfile&gt;">
    <defs/>
    <g>
        <g>
            <rect x="46" y="54.5" width="988" height="1045" fill="none" stroke="#000000" pointer-events="all" style="stroke: light-dark(rgb(0, 0, 0), rgb(255, 255, 255));"/>
        </g>
        <g>
            <rect x="94" y="150" width="800" height="880" fill="none" stroke="#000000" pointer-events="all" style="stroke: light-dark(rgb(0, 0, 0), rgb(255, 255, 255));"/>
        </g>
        <g>
            <rect x="124" y="262" width="740" height="695" fill="none" stroke="#000000" pointer-events="all" style="stroke: light-dark(rgb(0, 0, 0), rgb(255, 255, 255));"/>
        </g>
        <g>
            <path d="M 256 0.5 L 266 0.5 L 266.16 182.5 L 276.66 182.49 L 261.18 201.5 L 245.66 182.51 L 256.16 182.5 Z" fill="none" stroke="#000000" stroke-linejoin="round" stroke-miterlimit="10" pointer-events="all" style="stroke: light-dark(rgb(0, 0, 0), rgb(255, 255, 255));"/>
        </g>
        <g>
            <path d="M 256 982.5 L 266 982.5 L 266 1140.5 L 276.5 1140.5 L 261 1159.5 L 245.5 1140.5 L 256 1140.5 Z" fill="none" stroke="#000000" stroke-linejoin="round" stroke-miterlimit="10" pointer-events="all" style="stroke: light-dark(rgb(0, 0, 0), rgb(255, 255, 255));"/>
        </g>
        <g>
            <rect x="156" y="262" width="110" height="40" fill="none" stroke="none" pointer-events="all"/>
        </g>
        <g>
            <g transform="translate(-0.5 -0.5)">
                <switch>
                    <foreignObject style="overflow: visible; text-align: left;" pointer-events="none" width="100%" height="100%" requiredFeatures="http://www.w3.org/TR/SVG11/feature#Extensibility">
                        <div xmlns="http://www.w3.org/1999/xhtml" style="display: flex; align-items: unsafe center; justify-content: unsafe center; width: 1px; height: 1px; padding-top: 282px; margin-left: 211px;">
                            <div style="box-sizing: border-box; font-size: 0; text-align: center; color: #000000; ">
                                <div style="display: inline-block; font-size: 25px; font-family: &quot;Helvetica&quot;; color: light-dark(#000000, #ffffff); line-height: 1.2; pointer-events: all; white-space: nowrap; ">
                                    while(1)
                                </div>
                            </div>
                        </div>
                    </foreignObject>
                    <text x="211" y="290" fill="light-dark(#000000, #ffffff)" font-family="&quot;Helvetica&quot;" font-size="25px" text-anchor="middle">
                        while(1)
                    </text>
                </switch>
            </g>
        </g>
        <g>
            <path d="M 381 332.5 L 391 332.5 L 391 377 L 431 377 Q 441 377 441 387 L 441 407 Q 441 417 431 417 L 391 417 L 391 452.5 L 401.5 452.5 L 386 471.5 L 370.5 452.5 L 381 452.5 L 381 417 Q 381 407 391 407 L 431 407 L 431 387 L 391 387 Q 381 387 381 377 Z" fill="none" stroke="#000000" stroke-linejoin="round" stroke-miterlimit="10" pointer-events="all" style="stroke: light-dark(rgb(0, 0, 0), rgb(255, 255, 255));"/>
            <path d="M 391 452.5 L 401.5 452.5 L 386 471.5 L 370.5 452.5 L 381 452.5" fill="none" stroke="#000000" stroke-linejoin="flat" stroke-miterlimit="4" pointer-events="all" style="stroke: light-dark(rgb(0, 0, 0), rgb(255, 255, 255));"/>
        </g>
        <g>
            <path d="M 488.65 957 L 494.05 264.09" fill="none" stroke="#000000" stroke-width="2" stroke-miterlimit="10" stroke-dasharray="2 6" pointer-events="stroke" style="stroke: light-dark(rgb(0, 0, 0), rgb(255, 255, 255));"/>
        </g>
        <g>
            <path d="M 693 960 L 693 260" fill="none" stroke="#000000" stroke-width="2" stroke-miterlimit="10" stroke-dasharray="2 6" pointer-events="stroke" style="stroke: light-dark(rgb(0, 0, 0), rgb(255, 255, 255));"/>
        </g>
        <g>
            <path d="M 569 282.5 L 579 282.5 L 579 317 L 619 317 Q 629 317 629 327 L 629 347 Q 629 357 619 357 L 579 357 L 579 397 L 619 397 Q 629 397 629 407 L 629 437 Q 629 447 619 447 L 579 447 L 579 492.5 L 589.5 492.5 L 574 511.5 L 558.5 492.5 L 569 492.5 L 569 447 Q 569 437 579 437 L 619 437 L 619 407 L 579 407 Q 569 407 569 397 L 569 357 Q 569 347 579 347 L 619 347 L 619 327 L 579 327 Q 569 327 569 317 Z" fill="none" stroke="#000000" stroke-linejoin="round" stroke-miterlimit="10" pointer-events="all" style="stroke: light-dark(rgb(0, 0, 0), rgb(255, 255, 255));"/>
            <path d="M 579 492.5 L 589.5 492.5 L 574 511.5 L 558.5 492.5 L 569 492.5" fill="none" stroke="#000000" stroke-linejoin="flat" stroke-miterlimit="4" pointer-events="all" style="stroke: light-dark(rgb(0, 0, 0), rgb(255, 255, 255));"/>
        </g>
        <g>
            <path d="M 1009 332.5 L 1019 332.5 L 1019 367 L 1059 367 Q 1069 367 1069 377 L 1069 397 Q 1069 407 1059 407 L 1019 407 L 1019 432.5 L 1029.5 432.5 L 1014 451.5 L 998.5 432.5 L 1009 432.5 L 1009 407 Q 1009 397 1019 397 L 1059 397 L 1059 377 L 1019 377 Q 1009 377 1009 367 Z" fill="none" stroke="#000000" stroke-linejoin="round" stroke-miterlimit="10" pointer-events="all" style="stroke: light-dark(rgb(0, 0, 0), rgb(255, 255, 255));"/>
            <path d="M 1019 432.5 L 1029.5 432.5 L 1014 451.5 L 998.5 432.5 L 1009 432.5" fill="none" stroke="#000000" stroke-linejoin="flat" stroke-miterlimit="4" pointer-events="all" style="stroke: light-dark(rgb(0, 0, 0), rgb(255, 255, 255));"/>
        </g>
        <g>
            <path d="M 11 272.5 L 21 272.5 L 21 347 L 61 347 Q 71 347 71 357 L 71 407 Q 71 417 61 417 L 21 417 L 21 482.5 L 31.5 482.5 L 16 501.5 L 0.5 482.5 L 11 482.5 L 11 417 Q 11 407 21 407 L 61 407 L 61 357 L 21 357 Q 11 357 11 347 Z" fill="none" stroke="#000000" stroke-linejoin="round" stroke-miterlimit="10" pointer-events="all" style="stroke: light-dark(rgb(0, 0, 0), rgb(255, 255, 255));"/>
            <path d="M 21 482.5 L 31.5 482.5 L 16 501.5 L 0.5 482.5 L 11 482.5" fill="none" stroke="#000000" stroke-linejoin="flat" stroke-miterlimit="4" pointer-events="all" style="stroke: light-dark(rgb(0, 0, 0), rgb(255, 255, 255));"/>
        </g>
        <g>
            <path d="M 444 380 L 572 282" fill="none" stroke="#000000" stroke-width="2" stroke-miterlimit="10" stroke-dasharray="2 6" pointer-events="stroke" style="stroke: light-dark(rgb(0, 0, 0), rgb(255, 255, 255));"/>
        </g>
        <g>
            <path d="M 444 412 L 572 512" fill="none" stroke="#000000" stroke-width="2" stroke-miterlimit="10" stroke-dasharray="2 6" pointer-events="stroke" style="stroke: light-dark(rgb(0, 0, 0), rgb(255, 255, 255));"/>
        </g>
        <g>
            <path d="M 755 312.5 L 765 312.5 L 765 357 L 805 357 Q 815 357 815 367 L 815 387 Q 815 397 805 397 L 765 397 L 765 432.5 L 775.5 432.5 L 760 451.5 L 744.5 432.5 L 755 432.5 L 755 397 Q 755 387 765 387 L 805 387 L 805 367 L 765 367 Q 755 367 755 357 Z" fill="none" stroke="#000000" stroke-linejoin="round" stroke-miterlimit="10" pointer-events="all" style="stroke: light-dark(rgb(0, 0, 0), rgb(255, 255, 255));"/>
            <path d="M 765 432.5 L 775.5 432.5 L 760 451.5 L 744.5 432.5 L 755 432.5" fill="none" stroke="#000000" stroke-linejoin="flat" stroke-miterlimit="4" pointer-events="all" style="stroke: light-dark(rgb(0, 0, 0), rgb(255, 255, 255));"/>
        </g>
        <g>
            <path d="M 624 352 L 754 450" fill="none" stroke="#000000" stroke-width="2" stroke-miterlimit="10" stroke-dasharray="2 6" pointer-events="stroke" style="stroke: light-dark(rgb(0, 0, 0), rgb(255, 255, 255));"/>
        </g>
        <g>
            <path d="M 76 352 L 174 330" fill="none" stroke="#000000" stroke-width="2" stroke-miterlimit="10" stroke-dasharray="2 6" pointer-events="stroke" style="stroke: light-dark(rgb(0, 0, 0), rgb(255, 255, 255));"/>
        </g>
        <g>
            <path d="M 64 420 L 174 470" fill="none" stroke="#000000" stroke-width="2" stroke-miterlimit="10" stroke-dasharray="2 6" pointer-events="stroke" style="stroke: light-dark(rgb(0, 0, 0), rgb(255, 255, 255));"/>
        </g>
        <g>
            <path d="M 826 362 L 1004 340" fill="none" stroke="#000000" stroke-width="2" stroke-miterlimit="10" stroke-dasharray="2 6" pointer-events="stroke" style="stroke: light-dark(rgb(0, 0, 0), rgb(255, 255, 255));"/>
        </g>
        <g>
            <path d="M 826 392 L 1014.24 459.96" fill="none" stroke="#000000" stroke-width="2" stroke-miterlimit="10" stroke-dasharray="2 6" pointer-events="stroke" style="stroke: light-dark(rgb(0, 0, 0), rgb(255, 255, 255));"/>
        </g>
        <g>
            <path d="M 569 562.5 L 579 562.5 L 579 632.5 L 589.5 632.5 L 574 651.5 L 558.5 632.5 L 569 632.5 Z" fill="none" stroke="#000000" stroke-linejoin="round" stroke-miterlimit="10" pointer-events="all" style="stroke: light-dark(rgb(0, 0, 0), rgb(255, 255, 255));"/>
        </g>
        <g>
            <path d="M 383 692.5 L 393 692.5 L 393 762.5 L 403.5 762.5 L 388 781.5 L 372.5 762.5 L 383 762.5 Z" fill="none" stroke="#000000" stroke-linejoin="round" stroke-miterlimit="10" pointer-events="all" style="stroke: light-dark(rgb(0, 0, 0), rgb(255, 255, 255));"/>
        </g>
        <g>
            <path d="M 382 493.5 L 392 493.5 L 392 538 L 432 538 Q 442 538 442 548 L 442 568 Q 442 578 432 578 L 392 578 L 392 613.5 L 402.5 613.5 L 387 632.5 L 371.5 613.5 L 382 613.5 L 382 578 Q 382 568 392 568 L 432 568 L 432 548 L 392 548 Q 382 548 382 538 Z" fill="none" stroke="#000000" stroke-linejoin="round" stroke-miterlimit="10" pointer-events="all" style="stroke: light-dark(rgb(0, 0, 0), rgb(255, 255, 255));"/>
            <path d="M 392 613.5 L 402.5 613.5 L 387 632.5 L 371.5 613.5 L 382 613.5" fill="none" stroke="#000000" stroke-linejoin="flat" stroke-miterlimit="4" pointer-events="all" style="stroke: light-dark(rgb(0, 0, 0), rgb(255, 255, 255));"/>
        </g>
        <g>
            <path d="M 383 802.5 L 393 802.5 L 393 847 L 433 847 Q 443 847 443 857 L 443 877 Q 443 887 433 887 L 393 887 L 393 922.5 L 403.5 922.5 L 388 941.5 L 372.5 922.5 L 383 922.5 L 383 887 Q 383 877 393 877 L 433 877 L 433 857 L 393 857 Q 383 857 383 847 Z" fill="none" stroke="#000000" stroke-linejoin="round" stroke-miterlimit="10" pointer-events="all" style="stroke: light-dark(rgb(0, 0, 0), rgb(255, 255, 255));"/>
            <path d="M 393 922.5 L 403.5 922.5 L 388 941.5 L 372.5 922.5 L 383 922.5" fill="none" stroke="#000000" stroke-linejoin="flat" stroke-miterlimit="4" pointer-events="all" style="stroke: light-dark(rgb(0, 0, 0), rgb(255, 255, 255));"/>
        </g>
        <g>
            <path d="M 247.58 400.31 L 367.63 401.91" fill="none" stroke="#000000" stroke-miterlimit="10" pointer-events="stroke" style="stroke: light-dark(rgb(0, 0, 0), rgb(255, 255, 255));"/>
            <path d="M 372.88 401.99 L 365.84 405.39 L 367.63 401.91 L 365.93 398.39 Z" fill="#000000" stroke="#000000" stroke-miterlimit="10" pointer-events="all" style="fill: light-dark(rgb(0, 0, 0), rgb(255, 255, 255)); stroke: light-dark(rgb(0, 0, 0), rgb(255, 255, 255));"/>
        </g>
        <g>
            <path d="M 247.58 400.31 L 377.92 554.94" fill="none" stroke="#000000" stroke-miterlimit="10" pointer-events="stroke" style="stroke: light-dark(rgb(0, 0, 0), rgb(255, 255, 255));"/>
            <path d="M 381.31 558.96 L 374.12 555.86 L 377.92 554.94 L 379.47 551.35 Z" fill="#000000" stroke="#000000" stroke-miterlimit="10" pointer-events="all" style="fill: light-dark(rgb(0, 0, 0), rgb(255, 255, 255)); stroke: light-dark(rgb(0, 0, 0), rgb(255, 255, 255));"/>
        </g>
        <g>
            <path d="M 244 400 L 370.24 863.8" fill="none" stroke="#000000" stroke-miterlimit="10" pointer-events="stroke" style="stroke: light-dark(rgb(0, 0, 0), rgb(255, 255, 255));"/>
            <path d="M 371.62 868.86 L 366.4 863.03 L 370.24 863.8 L 373.16 861.19 Z" fill="#000000" stroke="#000000" stroke-miterlimit="10" pointer-events="all" style="fill: light-dark(rgb(0, 0, 0), rgb(255, 255, 255)); stroke: light-dark(rgb(0, 0, 0), rgb(255, 255, 255));"/>
        </g>
        <g>
            <path d="M 247.58 400.31 L 369.67 724.25" fill="none" stroke="#000000" stroke-miterlimit="10" pointer-events="stroke" style="stroke: light-dark(rgb(0, 0, 0), rgb(255, 255, 255));"/>
            <path d="M 371.52 729.17 L 365.78 723.85 L 369.67 724.25 L 372.33 721.38 Z" fill="#000000" stroke="#000000" stroke-miterlimit="10" pointer-events="all" style="fill: light-dark(rgb(0, 0, 0), rgb(255, 255, 255)); stroke: light-dark(rgb(0, 0, 0), rgb(255, 255, 255));"/>
        </g>
        <g>
            <rect x="256" y="80" width="70" height="40" fill="none" stroke="none" pointer-events="all"/>
        </g>
        <g>
            <g transform="translate(-0.5 -0.5)">
                <switch>
                    <foreignObject style="overflow: visible; text-align: left;" pointer-events="none" width="100%" height="100%" requiredFeatures="http://www.w3.org/TR/SVG11/feature#Extensibility">
                        <div xmlns="http://www.w3.org/1999/xhtml" style="display: flex; align-items: unsafe center; justify-content: unsafe center; width: 1px; height: 1px; padding-top: 100px; margin-left: 291px;">
                            <div style="box-sizing: border-box; font-size: 0; text-align: center; color: #000000; ">
                                <div style="display: inline-block; font-size: 25px; font-family: &quot;Helvetica&quot;; color: light-dark(#000000, #ffffff); line-height: 1.2; pointer-events: all; white-space: nowrap; ">
                                    argv
                                </div>
                            </div>
                        </div>
                    </foreignObject>
                    <text x="291" y="108" fill="light-dark(#000000, #ffffff)" font-family="&quot;Helvetica&quot;" font-size="25px" text-anchor="middle">
                        argv
                    </text>
                </switch>
            </g>
        </g>
        <g>
            <rect x="251" y="1032" width="90" height="40" fill="none" stroke="none" pointer-events="all"/>
        </g>
        <g>
            <g transform="translate(-0.5 -0.5)">
                <switch>
                    <foreignObject style="overflow: visible; text-align: left;" pointer-events="none" width="100%" height="100%" requiredFeatures="http://www.w3.org/TR/SVG11/feature#Extensibility">
                        <div xmlns="http://www.w3.org/1999/xhtml" style="display: flex; align-items: unsafe center; justify-content: unsafe center; width: 1px; height: 1px; padding-top: 1052px; margin-left: 296px;">
                            <div style="box-sizing: border-box; font-size: 0; text-align: center; color: #000000; ">
                                <div style="display: inline-block; font-size: 25px; font-family: &quot;Helvetica&quot;; color: light-dark(#000000, #ffffff); line-height: 1.2; pointer-events: all; white-space: nowrap; ">
                                    return
                                </div>
                            </div>
                        </div>
                    </foreignObject>
                    <text x="296" y="1060" fill="light-dark(#000000, #ffffff)" font-family="&quot;Helvetica&quot;" font-size="25px" text-anchor="middle">
                        return
                    </text>
                </switch>
            </g>
        </g>
        <g>
            <rect x="944" y="710" width="70" height="50" rx="7.5" ry="7.5" fill="none" stroke="#000000" pointer-events="all" style="stroke: light-dark(rgb(0, 0, 0), rgb(255, 255, 255));"/>
        </g>
        <g>
            <g transform="translate(-0.5 -0.5)">
                <switch>
                    <foreignObject style="overflow: visible; text-align: left;" pointer-events="none" width="100%" height="100%" requiredFeatures="http://www.w3.org/TR/SVG11/feature#Extensibility">
                        <div xmlns="http://www.w3.org/1999/xhtml" style="display: flex; align-items: unsafe center; justify-content: unsafe center; width: 68px; height: 1px; padding-top: 735px; margin-left: 945px;">
                            <div style="box-sizing: border-box; font-size: 0; text-align: center; color: #000000; ">
                                <div style="display: inline-block; font-size: 25px; font-family: &quot;Helvetica&quot;; color: light-dark(#000000, #ffffff); line-height: 1.2; pointer-events: all; white-space: normal; word-wrap: normal; ">
                                    state
                                </div>
                            </div>
                        </div>
                    </foreignObject>
                    <text x="979" y="743" fill="light-dark(#000000, #ffffff)" font-family="&quot;Helvetica&quot;" font-size="25px" text-anchor="middle">
                        state
                    </text>
                </switch>
            </g>
        </g>
        <g>
            <rect x="944" y="610" width="70" height="50" rx="7.5" ry="7.5" fill="none" stroke="#000000" pointer-events="all" style="stroke: light-dark(rgb(0, 0, 0), rgb(255, 255, 255));"/>
        </g>
        <g>
            <g transform="translate(-0.5 -0.5)">
                <switch>
                    <foreignObject style="overflow: visible; text-align: left;" pointer-events="none" width="100%" height="100%" requiredFeatures="http://www.w3.org/TR/SVG11/feature#Extensibility">
                        <div xmlns="http://www.w3.org/1999/xhtml" style="display: flex; align-items: unsafe center; justify-content: unsafe center; width: 68px; height: 1px; padding-top: 635px; margin-left: 945px;">
                            <div style="box-sizing: border-box; font-size: 0; text-align: center; color: #000000; ">
                                <div style="display: inline-block; font-size: 25px; font-family: &quot;Helvetica&quot;; color: light-dark(#000000, #ffffff); line-height: 1.2; pointer-events: all; white-space: normal; word-wrap: normal; ">
                                    state
                                </div>
                            </div>
                        </div>
                    </foreignObject>
                    <text x="979" y="643" fill="light-dark(#000000, #ffffff)" font-family="&quot;Helvetica&quot;" font-size="25px" text-anchor="middle">
                        state
                    </text>
                </switch>
            </g>
        </g>
        <g>
            <path d="M 571 673.5 L 581 673.5 L 581 718 L 621 718 Q 631 718 631 728 L 631 748 Q 631 758 621 758 L 581 758 L 581 793.5 L 591.5 793.5 L 576 812.5 L 560.5 793.5 L 571 793.5 L 571 758 Q 571 748 581 748 L 621 748 L 621 728 L 581 728 Q 571 728 571 718 Z" fill="none" stroke="#000000" stroke-linejoin="round" stroke-miterlimit="10" pointer-events="all" style="stroke: light-dark(rgb(0, 0, 0), rgb(255, 255, 255));"/>
            <path d="M 581 793.5 L 591.5 793.5 L 576 812.5 L 560.5 793.5 L 571 793.5" fill="none" stroke="#000000" stroke-linejoin="flat" stroke-miterlimit="4" pointer-events="all" style="stroke: light-dark(rgb(0, 0, 0), rgb(255, 255, 255));"/>
        </g>
        <g>
            <path d="M 624 322 L 754 310" fill="none" stroke="#000000" stroke-width="2" stroke-miterlimit="10" stroke-dasharray="2 6" pointer-events="stroke" style="stroke: light-dark(rgb(0, 0, 0), rgb(255, 255, 255));"/>
        </g>
        <g>
            <path d="M 634 752 L 944 660" fill="none" stroke="#000000" stroke-width="2" stroke-miterlimit="10" stroke-dasharray="2 6" pointer-events="stroke" style="stroke: light-dark(rgb(0, 0, 0), rgb(255, 255, 255));"/>
        </g>
        <g>
            <path d="M 634 722 L 944 610" fill="none" stroke="#000000" stroke-width="2" stroke-miterlimit="10" stroke-dasharray="2 6" pointer-events="stroke" style="stroke: light-dark(rgb(0, 0, 0), rgb(255, 255, 255));"/>
        </g>
        <g>
            <path d="M 944 610 L 624 400" fill="none" stroke="#000000" stroke-width="2" stroke-miterlimit="10" stroke-dasharray="2 6" pointer-events="stroke" style="stroke: light-dark(rgb(0, 0, 0), rgb(255, 255, 255));"/>
        </g>
        <g>
            <path d="M 944 660 L 624 440" fill="none" stroke="#000000" stroke-width="2" stroke-miterlimit="10" stroke-dasharray="2 6" pointer-events="stroke" style="stroke: light-dark(rgb(0, 0, 0), rgb(255, 255, 255));"/>
        </g>
        <g>
            <rect x="1074" y="362" width="70" height="50" rx="7.5" ry="7.5" fill="none" stroke="#000000" pointer-events="all" style="stroke: light-dark(rgb(0, 0, 0), rgb(255, 255, 255));"/>
        </g>
        <g>
            <g transform="translate(-0.5 -0.5)">
                <switch>
                    <foreignObject style="overflow: visible; text-align: left;" pointer-events="none" width="100%" height="100%" requiredFeatures="http://www.w3.org/TR/SVG11/feature#Extensibility">
                        <div xmlns="http://www.w3.org/1999/xhtml" style="display: flex; align-items: unsafe center; justify-content: unsafe center; width: 68px; height: 1px; padding-top: 387px; margin-left: 1075px;">
                            <div style="box-sizing: border-box; font-size: 0; text-align: center; color: #000000; ">
                                <div style="display: inline-block; font-size: 25px; font-family: &quot;Helvetica&quot;; color: light-dark(#000000, #ffffff); line-height: 1.2; pointer-events: all; white-space: normal; word-wrap: normal; ">
                                    state
                                </div>
                            </div>
                        </div>
                    </foreignObject>
                    <text x="1109" y="395" fill="light-dark(#000000, #ffffff)" font-family="&quot;Helvetica&quot;" font-size="25px" text-anchor="middle">
                        state
                    </text>
                </switch>
            </g>
        </g>
        <g>
            <rect x="106" y="152" width="80" height="40" fill="none" stroke="none" pointer-events="all"/>
        </g>
        <g>
            <g transform="translate(-0.5 -0.5)">
                <switch>
                    <foreignObject style="overflow: visible; text-align: left;" pointer-events="none" width="100%" height="100%" requiredFeatures="http://www.w3.org/TR/SVG11/feature#Extensibility">
                        <div xmlns="http://www.w3.org/1999/xhtml" style="display: flex; align-items: unsafe center; justify-content: unsafe center; width: 1px; height: 1px; padding-top: 172px; margin-left: 146px;">
                            <div style="box-sizing: border-box; font-size: 0; text-align: center; color: #000000; ">
                                <div style="display: inline-block; font-size: 25px; font-family: &quot;Helvetica&quot;; color: light-dark(#000000, #ffffff); line-height: 1.2; pointer-events: all; white-space: nowrap; ">
                                    main
                                </div>
                            </div>
                        </div>
                    </foreignObject>
                    <text x="146" y="180" fill="light-dark(#000000, #ffffff)" font-family="&quot;Helvetica&quot;" font-size="25px" text-anchor="middle">
                        main
                    </text>
                </switch>
            </g>
        </g>
        <g>
            <path d="M 173 329.5 L 183 329.5 L 183 374 L 223 374 Q 233 374 233 384 L 233 404 Q 233 414 223 414 L 183 414 L 183 449.5 L 193.5 449.5 L 178 468.5 L 162.5 449.5 L 173 449.5 L 173 414 Q 173 404 183 404 L 223 404 L 223 384 L 183 384 Q 173 384 173 374 Z" fill="none" stroke="#000000" stroke-linejoin="round" stroke-miterlimit="10" pointer-events="all" style="stroke: light-dark(rgb(0, 0, 0), rgb(255, 255, 255));"/>
            <path d="M 183 449.5 L 193.5 449.5 L 178 468.5 L 162.5 449.5 L 173 449.5" fill="none" stroke="#000000" stroke-linejoin="flat" stroke-miterlimit="4" pointer-events="all" style="stroke: light-dark(rgb(0, 0, 0), rgb(255, 255, 255));"/>
        </g>
        <g>
            <rect x="35" y="54" width="110" height="40" fill="none" stroke="none" pointer-events="all"/>
        </g>
        <g>
            <g transform="translate(-0.5 -0.5)">
                <switch>
                    <foreignObject style="overflow: visible; text-align: left;" pointer-events="none" width="100%" height="100%" requiredFeatures="http://www.w3.org/TR/SVG11/feature#Extensibility">
                        <div xmlns="http://www.w3.org/1999/xhtml" style="display: flex; align-items: unsafe center; justify-content: unsafe center; width: 1px; height: 1px; padding-top: 74px; margin-left: 90px;">
                            <div style="box-sizing: border-box; font-size: 0; text-align: center; color: #000000; ">
                                <div style="display: inline-block; font-size: 25px; font-family: &quot;Helvetica&quot;; color: light-dark(#000000, #ffffff); line-height: 1.2; pointer-events: all; white-space: nowrap; ">
                                    process
                                </div>
                            </div>
                        </div>
                    </foreignObject>
                    <text x="90" y="82" fill="light-dark(#000000, #ffffff)" font-family="&quot;Helvetica&quot;" font-size="25px" text-anchor="middle">
                        process
                    </text>
                </switch>
            </g>
        </g>
        <g>
            <rect x="99" y="205" width="150" height="40" fill="none" stroke="none" pointer-events="all"/>
        </g>
        <g>
            <g transform="translate(-0.5 -0.5)">
                <switch>
                    <foreignObject style="overflow: visible; text-align: left;" pointer-events="none" width="100%" height="100%" requiredFeatures="http://www.w3.org/TR/SVG11/feature#Extensibility">
                        <div xmlns="http://www.w3.org/1999/xhtml" style="display: flex; align-items: unsafe center; justify-content: unsafe center; width: 1px; height: 1px; padding-top: 225px; margin-left: 174px;">
                            <div style="box-sizing: border-box; font-size: 0; text-align: center; color: #000000; ">
                                <div style="display: inline-block; font-size: 25px; font-family: &quot;Helvetica&quot;; color: light-dark(#000000, #ffffff); line-height: 1.2; pointer-events: all; white-space: nowrap; ">
                                    parse_argv
                                </div>
                            </div>
                        </div>
                    </foreignObject>
                    <text x="174" y="233" fill="light-dark(#000000, #ffffff)" font-family="&quot;Helvetica&quot;" font-size="25px" text-anchor="middle">
                        parse_argv
                    </text>
                </switch>
            </g>
        </g>
        <g>
            <rect x="125" y="975" width="110" height="40" fill="none" stroke="none" pointer-events="all"/>
        </g>
        <g>
            <g transform="translate(-0.5 -0.5)">
                <switch>
                    <foreignObject style="overflow: visible; text-align: left;" pointer-events="none" width="100%" height="100%" requiredFeatures="http://www.w3.org/TR/SVG11/feature#Extensibility">
                        <div xmlns="http://www.w3.org/1999/xhtml" style="display: flex; align-items: unsafe center; justify-content: unsafe center; width: 1px; height: 1px; padding-top: 995px; margin-left: 180px;">
                            <div style="box-sizing: border-box; font-size: 0; text-align: center; color: #000000; ">
                                <div style="display: inline-block; font-size: 25px; font-family: &quot;Helvetica&quot;; color: light-dark(#000000, #ffffff); line-height: 1.2; pointer-events: all; white-space: nowrap; ">
                                    cleanup
                                </div>
                            </div>
                        </div>
                    </foreignObject>
                    <text x="180" y="1003" fill="light-dark(#000000, #ffffff)" font-family="&quot;Helvetica&quot;" font-size="25px" text-anchor="middle">
                        cleanup
                    </text>
                </switch>
            </g>
        </g>
    </g>
    <switch>
        <g requiredFeatures="http://www.w3.org/TR/SVG11/feature#Extensibility"/>
        <a transform="translate(0,-5)" xlink:href="https://www.drawio.com/doc/faq/svg-export-text-problems" target="_blank">
            <text text-anchor="middle" font-size="10px" x="50%" y="100%">
                Text is not SVG - cannot display
            </text>
        </a>
    </switch>
</svg>